<svg xmlns="http://www.w3.org/2000/svg" xmlns:xlink="http://www.w3.org/1999/xlink" viewBox="0 0 635.52 408.47"><defs><style>.cls-1{fill:none;}.cls-2{isolation:isolate;}.cls-3{clip-path:url(#clip-path);}.cls-22,.cls-24,.cls-25,.cls-26,.cls-4{mix-blend-mode:screen;}.cls-4{fill:url(#radial-gradient);}.cls-10,.cls-11,.cls-12,.cls-13,.cls-14,.cls-15,.cls-16,.cls-17,.cls-18,.cls-19,.cls-20,.cls-21,.cls-5,.cls-6,.cls-7,.cls-8,.cls-9{fill:#fff;}.cls-5{opacity:0;}.cls-6{opacity:0.06;}.cls-7{opacity:0.13;}.cls-8{opacity:0.19;}.cls-9{opacity:0.25;}.cls-10{opacity:0.31;}.cls-11{opacity:0.38;}.cls-12{opacity:0.44;}.cls-13,.cls-23{opacity:0.5;}.cls-14{opacity:0.56;}.cls-15{opacity:0.63;}.cls-16{opacity:0.69;}.cls-17{opacity:0.75;}.cls-18{opacity:0.81;}.cls-19{opacity:0.88;}.cls-20{opacity:0.94;}.cls-22{fill:url(#radial-gradient-2);}.cls-24{fill:url(#radial-gradient-3);}.cls-25{fill:url(#radial-gradient-4);}.cls-26{fill:url(#radial-gradient-5);}</style><clipPath id="clip-path" transform="translate(-60.9 -40.11)"><rect class="cls-1" width="750" height="500"/></clipPath><radialGradient id="radial-gradient" cx="-870.13" cy="777.31" r="28.43" gradientTransform="matrix(1, -0.06, -0.06, -1, 1196.14, 901.96)" gradientUnits="userSpaceOnUse"><stop offset="0" stop-color="#fff"/><stop offset="0" stop-color="#fff" stop-opacity="0.99"/><stop offset="0.08" stop-color="#fff" stop-opacity="0.78"/><stop offset="0.17" stop-color="#fff" stop-opacity="0.6"/><stop offset="0.26" stop-color="#fff" stop-opacity="0.44"/><stop offset="0.35" stop-color="#fff" stop-opacity="0.3"/><stop offset="0.45" stop-color="#fff" stop-opacity="0.19"/><stop offset="0.55" stop-color="#fff" stop-opacity="0.11"/><stop offset="0.67" stop-color="#fff" stop-opacity="0.05"/><stop offset="0.8" stop-color="#fff" stop-opacity="0.01"/><stop offset="1" stop-color="#fff" stop-opacity="0"/></radialGradient><radialGradient id="radial-gradient-2" cx="-750.03" cy="512.6" r="14.7" xlink:href="#radial-gradient"/><radialGradient id="radial-gradient-3" cx="-509.1" cy="611.67" r="10.63" xlink:href="#radial-gradient"/><radialGradient id="radial-gradient-4" cx="-716.62" cy="602.13" r="7.04" xlink:href="#radial-gradient"/><radialGradient id="radial-gradient-5" cx="-1080.36" cy="721.92" r="14.7" xlink:href="#radial-gradient"/></defs><g class="cls-2"><g id="OBJECTS"><g class="cls-3"><path class="cls-4" d="M310.63,175a28.43,28.43,0,1,0-26.72,30A28.44,28.44,0,0,0,310.63,175Z" transform="translate(-60.9 -40.11)"/><path class="cls-5" d="M285.75,178.2a3.4,3.4,0,1,1-5.18-4.42c1.22-1.43,119.69-133.67,119.69-133.67C400.7,40.48,287,176.77,285.75,178.2Z" transform="translate(-60.9 -40.11)"/><path class="cls-6" d="M285.66,178.12a3.29,3.29,0,0,1-5-4.27C281.84,172.47,393,48.5,393,48.53,393.45,48.91,286.84,176.74,285.66,178.12Z" transform="translate(-60.9 -40.11)"/><path class="cls-7" d="M285.57,178.05a3.17,3.17,0,0,1-4.82-4.12c1.13-1.33,104.92-117,105-117C386.21,57.34,286.71,176.72,285.57,178.05Z" transform="translate(-60.9 -40.11)"/><path class="cls-8" d="M285.48,178a3.05,3.05,0,0,1-4.65-4c1.1-1.29,97.54-108.74,97.66-108.64C379,65.77,286.58,176.69,285.48,178Z" transform="translate(-60.9 -40.11)"/><path class="cls-9" d="M285.39,177.9a2.94,2.94,0,0,1-4.47-3.82c1.06-1.23,90.15-100.43,90.31-100.29C371.72,74.2,286.44,176.66,285.39,177.9Z" transform="translate(-60.9 -40.11)"/><path class="cls-10" d="M285.3,177.82a2.82,2.82,0,0,1-4.29-3.66C282,173,363.78,82,364,82.21,364.48,82.64,286.31,176.64,285.3,177.82Z" transform="translate(-60.9 -40.11)"/><path class="cls-11" d="M285.21,177.74a2.7,2.7,0,0,1-4.11-3.5c1-1.14,75.38-83.81,75.62-83.61C357.23,91.07,286.18,176.61,285.21,177.74Z" transform="translate(-60.9 -40.11)"/><path class="cls-12" d="M285.12,177.67a2.59,2.59,0,0,1-3.93-3.36c.93-1.08,68-75.5,68.27-75.26C350,99.5,286.05,176.58,285.12,177.67Z" transform="translate(-60.9 -40.11)"/><path class="cls-13" d="M285,177.59a2.46,2.46,0,0,1-3.75-3.2c.89-1,60.6-67.19,60.93-66.92C342.74,107.93,285.92,176.55,285,177.59Z" transform="translate(-60.9 -40.11)"/><path class="cls-14" d="M284.94,177.51a2.35,2.35,0,0,1-3.57-3c.84-1,53.22-58.88,53.58-58.57C335.5,116.36,285.79,176.53,284.94,177.51Z" transform="translate(-60.9 -40.11)"/><path class="cls-15" d="M284.85,177.44a2.23,2.23,0,0,1-3.39-2.9c.8-.93,45.83-50.57,46.23-50.23C328.25,124.79,285.65,176.5,284.85,177.44Z" transform="translate(-60.9 -40.11)"/><path class="cls-16" d="M284.76,177.36a2.11,2.11,0,1,1-3.21-2.74c.76-.89,38.44-42.26,38.88-41.89S285.52,176.47,284.76,177.36Z" transform="translate(-60.9 -40.11)"/><path class="cls-17" d="M284.67,177.28a2,2,0,0,1-2.81.23,2,2,0,0,1-.22-2.82c.72-.83,31.06-33.95,31.54-33.54S285.39,176.45,284.67,177.28Z" transform="translate(-60.9 -40.11)"/><path class="cls-18" d="M284.59,177.21a1.88,1.88,0,1,1-2.86-2.44c.67-.79,23.67-25.64,24.19-25.2S285.26,176.42,284.59,177.21Z" transform="translate(-60.9 -40.11)"/><path class="cls-19" d="M284.5,177.13a1.76,1.76,0,1,1-2.68-2.28c.63-.74,16.28-17.34,16.84-16.86S285.13,176.39,284.5,177.13Z" transform="translate(-60.9 -40.11)"/><path class="cls-20" d="M284.41,177.06a1.65,1.65,0,0,1-2.5-2.14c.59-.69,8.89-9,9.49-8.51S285,176.37,284.41,177.06Z" transform="translate(-60.9 -40.11)"/><path class="cls-21" d="M284.32,177a1.53,1.53,0,1,1-.17-2.15A1.53,1.53,0,0,1,284.32,177Z" transform="translate(-60.9 -40.11)"/><path class="cls-22" d="M432.23,433a14.7,14.7,0,1,0-13.82,15.54A14.71,14.71,0,0,0,432.23,433Z" transform="translate(-60.9 -40.11)"/><path class="cls-5" d="M419.36,434.7a1.76,1.76,0,1,1-2.68-2.29c.63-.74,61.91-69.13,61.91-69.13C478.81,363.47,420,434,419.36,434.7Z" transform="translate(-60.9 -40.11)"/><path class="cls-6" d="M419.32,434.66a1.7,1.7,0,1,1-2.59-2.21c.61-.71,58.08-64.83,58.1-64.81C475.07,367.83,419.93,434,419.32,434.66Z" transform="translate(-60.9 -40.11)"/><path class="cls-7" d="M419.27,434.62a1.64,1.64,0,0,1-2.5-2.13c.59-.69,54.27-60.53,54.31-60.5C471.32,372.19,419.86,433.93,419.27,434.62Z" transform="translate(-60.9 -40.11)"/><path class="cls-8" d="M419.22,434.58a1.58,1.58,0,1,1-2.4-2.05c.57-.66,50.44-56.24,50.51-56.19C467.57,376.55,419.79,433.92,419.22,434.58Z" transform="translate(-60.9 -40.11)"/><path class="cls-9" d="M419.18,434.54a1.52,1.52,0,1,1-2.31-2c.54-.64,46.62-51.94,46.7-51.87C463.82,380.91,419.72,433.9,419.18,434.54Z" transform="translate(-60.9 -40.11)"/><path class="cls-10" d="M419.13,434.5a1.46,1.46,0,0,1-2.22-1.89c.53-.61,42.81-47.64,42.91-47.56C460.08,385.27,419.65,433.89,419.13,434.5Z" transform="translate(-60.9 -40.11)"/><path class="cls-11" d="M419.08,434.46a1.39,1.39,0,1,1-2.12-1.81c.5-.59,39-43.35,39.11-43.24S419.58,433.88,419.08,434.46Z" transform="translate(-60.9 -40.11)"/><path class="cls-12" d="M419,434.42a1.34,1.34,0,0,1-2-1.73c.48-.56,35.17-39.05,35.31-38.93S419.52,433.86,419,434.42Z" transform="translate(-60.9 -40.11)"/><path class="cls-13" d="M419,434.38a1.27,1.27,0,1,1-1.94-1.65c.46-.54,31.34-34.75,31.51-34.61S419.45,433.85,419,434.38Z" transform="translate(-60.9 -40.11)"/><path class="cls-14" d="M418.94,434.34a1.21,1.21,0,1,1-1.84-1.57c.43-.51,27.52-30.46,27.71-30.3S419.38,433.83,418.94,434.34Z" transform="translate(-60.9 -40.11)"/><path class="cls-15" d="M418.9,434.3a1.15,1.15,0,0,1-1.76-1.49c.42-.49,23.71-26.16,23.91-26S419.31,433.82,418.9,434.3Z" transform="translate(-60.9 -40.11)"/><path class="cls-16" d="M418.85,434.26a1.09,1.09,0,0,1-1.54.13,1.1,1.1,0,0,1-.12-1.55c.39-.45,19.88-21.85,20.11-21.66S419.24,433.81,418.85,434.26Z" transform="translate(-60.9 -40.11)"/><path class="cls-17" d="M418.8,434.22a1,1,0,0,1-1.45.12,1,1,0,0,1-.11-1.46c.37-.43,16.06-17.55,16.31-17.34S419.18,433.79,418.8,434.22Z" transform="translate(-60.9 -40.11)"/><path class="cls-18" d="M418.76,434.18a1,1,0,1,1-1.48-1.26c.35-.4,12.24-13.26,12.51-13S419.11,433.78,418.76,434.18Z" transform="translate(-60.9 -40.11)"/><path class="cls-19" d="M418.71,434.15a.91.91,0,1,1-1.38-1.19c.33-.38,8.42-9,8.71-8.71S419,433.76,418.71,434.15Z" transform="translate(-60.9 -40.11)"/><path class="cls-20" d="M418.67,434.11a.86.86,0,0,1-1.2.09.84.84,0,0,1-.09-1.2c.3-.35,4.6-4.66,4.91-4.4S419,433.75,418.67,434.11Z" transform="translate(-60.9 -40.11)"/><path class="cls-21" d="M418.62,434.07a.78.78,0,0,1-1.11.08.79.79,0,0,1-.09-1.11.78.78,0,0,1,1.11-.08A.79.79,0,0,1,418.62,434.07Z" transform="translate(-60.9 -40.11)"/><g class="cls-23"><path class="cls-24" d="M662.91,320.34a10.62,10.62,0,1,0-10,11.23A10.62,10.62,0,0,0,662.91,320.34Z" transform="translate(-60.9 -40.11)"/><path class="cls-5" d="M653.61,321.55a1.27,1.27,0,0,1-1.94-1.65c.46-.54,44.75-50,44.75-50C696.58,270.07,654.07,321,653.61,321.55Z" transform="translate(-60.9 -40.11)"/><path class="cls-6" d="M653.58,321.52a1.23,1.23,0,1,1-1.87-1.59c.44-.52,42-46.86,42-46.85C693.87,273.22,654,321,653.58,321.52Z" transform="translate(-60.9 -40.11)"/><path class="cls-7" d="M653.54,321.49a1.19,1.19,0,0,1-1.67.14,1.21,1.21,0,0,1-.13-1.68c.43-.49,39.22-43.75,39.25-43.72S654,321,653.54,321.49Z" transform="translate(-60.9 -40.11)"/><path class="cls-8" d="M653.51,321.47a1.14,1.14,0,1,1-1.73-1.49c.4-.48,36.45-40.64,36.5-40.6S653.92,321,653.51,321.47Z" transform="translate(-60.9 -40.11)"/><path class="cls-9" d="M653.48,321.44a1.1,1.1,0,1,1-1.67-1.43c.39-.46,33.7-37.54,33.76-37.49S653.87,321,653.48,321.44Z" transform="translate(-60.9 -40.11)"/><path class="cls-10" d="M653.44,321.41a1.05,1.05,0,1,1-1.6-1.37c.38-.44,30.94-34.43,31-34.37S653.82,321,653.44,321.41Z" transform="translate(-60.9 -40.11)"/><path class="cls-11" d="M653.41,321.38a1,1,0,0,1-1.42.11,1,1,0,0,1-.11-1.42c.36-.42,28.17-31.33,28.26-31.25S653.77,321,653.41,321.38Z" transform="translate(-60.9 -40.11)"/><path class="cls-12" d="M653.38,321.35a1,1,0,0,1-1.47-1.25c.34-.41,25.41-28.22,25.52-28.13S653.72,321,653.38,321.35Z" transform="translate(-60.9 -40.11)"/><path class="cls-13" d="M653.34,321.32a.92.92,0,1,1-1.4-1.19c.33-.39,22.65-25.12,22.77-25S653.67,320.94,653.34,321.32Z" transform="translate(-60.9 -40.11)"/><path class="cls-14" d="M653.31,321.29a.88.88,0,1,1-1.33-1.14c.31-.36,19.89-22,20-21.89S653.63,320.93,653.31,321.29Z" transform="translate(-60.9 -40.11)"/><path class="cls-15" d="M653.28,321.27a.85.85,0,0,1-1.18.09.84.84,0,0,1-.09-1.18c.3-.35,17.13-18.9,17.28-18.77S653.58,320.92,653.28,321.27Z" transform="translate(-60.9 -40.11)"/><path class="cls-16" d="M653.24,321.24a.78.78,0,0,1-1.11.08.79.79,0,0,1-.09-1.11c.29-.33,14.37-15.8,14.54-15.66S653.53,320.91,653.24,321.24Z" transform="translate(-60.9 -40.11)"/><path class="cls-17" d="M653.21,321.21a.74.74,0,1,1-1.13-1c.26-.31,11.6-12.69,11.78-12.54S653.48,320.9,653.21,321.21Z" transform="translate(-60.9 -40.11)"/><path class="cls-18" d="M653.18,321.18a.71.71,0,0,1-1,.08.7.7,0,0,1-.08-1c.25-.3,8.85-9.59,9-9.42S653.43,320.89,653.18,321.18Z" transform="translate(-60.9 -40.11)"/><path class="cls-19" d="M653.14,321.15a.64.64,0,0,1-.92.07.65.65,0,0,1-.08-.92c.24-.28,6.09-6.48,6.3-6.3S653.38,320.88,653.14,321.15Z" transform="translate(-60.9 -40.11)"/><path class="cls-20" d="M653.11,321.12a.61.61,0,1,1-.93-.79c.22-.26,3.32-3.38,3.55-3.19S653.33,320.86,653.11,321.12Z" transform="translate(-60.9 -40.11)"/><path class="cls-21" d="M653.08,321.09a.57.57,0,1,1-.07-.8A.57.57,0,0,1,653.08,321.09Z" transform="translate(-60.9 -40.11)"/></g><g class="cls-23"><path class="cls-25" d="M452.72,342.15a7,7,0,1,0-6.61,7.44A7,7,0,0,0,452.72,342.15Z" transform="translate(-60.9 -40.11)"/><path class="cls-5" d="M446.56,343a.84.84,0,1,1-1.28-1.09c.3-.36,29.64-33.11,29.64-33.11S446.86,342.6,446.56,343Z" transform="translate(-60.9 -40.11)"/><path class="cls-6" d="M446.54,342.93a.81.81,0,0,1-1.15.1.82.82,0,0,1-.09-1.15c.29-.35,27.82-31.05,27.83-31S446.83,342.59,446.54,342.93Z" transform="translate(-60.9 -40.11)"/><path class="cls-7" d="M446.52,342.92a.79.79,0,0,1-1.2-1c.28-.33,26-29,26-29S446.8,342.59,446.52,342.92Z" transform="translate(-60.9 -40.11)"/><path class="cls-8" d="M446.5,342.9a.77.77,0,0,1-1.07.08.76.76,0,0,1-.09-1.07c.27-.31,24.16-26.93,24.19-26.9S446.77,342.58,446.5,342.9Z" transform="translate(-60.9 -40.11)"/><path class="cls-9" d="M446.47,342.88a.73.73,0,1,1-1.1-.95c.26-.3,22.32-24.87,22.36-24.84S446.73,342.57,446.47,342.88Z" transform="translate(-60.9 -40.11)"/><path class="cls-10" d="M446.45,342.86a.7.7,0,1,1-1.06-.91c.25-.29,20.5-22.81,20.55-22.77S446.7,342.57,446.45,342.86Z" transform="translate(-60.9 -40.11)"/><path class="cls-11" d="M446.43,342.84a.68.68,0,0,1-.95.07.67.67,0,0,1-.07-.94c.24-.28,18.67-20.76,18.73-20.71S446.67,342.56,446.43,342.84Z" transform="translate(-60.9 -40.11)"/><path class="cls-12" d="M446.41,342.82a.64.64,0,0,1-1-.83c.23-.27,16.84-18.7,16.91-18.64S446.64,342.55,446.41,342.82Z" transform="translate(-60.9 -40.11)"/><path class="cls-13" d="M446.38,342.8a.61.61,0,0,1-.86.07.62.62,0,0,1-.07-.86c.22-.26,15-16.64,15.09-16.58S446.6,342.55,446.38,342.8Z" transform="translate(-60.9 -40.11)"/><path class="cls-14" d="M446.36,342.78a.58.58,0,0,1-.82.07.58.58,0,0,1-.06-.82c.2-.25,13.18-14.59,13.27-14.51S446.57,342.54,446.36,342.78Z" transform="translate(-60.9 -40.11)"/><path class="cls-15" d="M446.34,342.76a.55.55,0,1,1-.84-.71c.2-.23,11.35-12.53,11.45-12.44S446.54,342.53,446.34,342.76Z" transform="translate(-60.9 -40.11)"/><path class="cls-16" d="M446.32,342.75a.53.53,0,0,1-.74.05.51.51,0,0,1-.06-.73c.19-.22,9.52-10.47,9.63-10.38S446.5,342.53,446.32,342.75Z" transform="translate(-60.9 -40.11)"/><path class="cls-17" d="M446.29,342.73a.49.49,0,0,1-.69,0,.5.5,0,0,1-.06-.7c.18-.2,7.7-8.4,7.81-8.3S446.47,342.52,446.29,342.73Z" transform="translate(-60.9 -40.11)"/><path class="cls-18" d="M446.27,342.71a.46.46,0,0,1-.65.05.47.47,0,0,1-.06-.66c.17-.19,5.87-6.35,6-6.24S446.44,342.51,446.27,342.71Z" transform="translate(-60.9 -40.11)"/><path class="cls-19" d="M446.25,342.69a.44.44,0,0,1-.61.05.43.43,0,0,1-.05-.62,56.53,56.53,0,0,1,4.17-4.17A52.86,52.86,0,0,1,446.25,342.69Z" transform="translate(-60.9 -40.11)"/><path class="cls-20" d="M446.23,342.67a.4.4,0,0,1-.57,0,.39.39,0,0,1-.05-.57A15,15,0,0,1,448,340C448.12,340.17,446.37,342.5,446.23,342.67Z" transform="translate(-60.9 -40.11)"/><path class="cls-21" d="M446.21,342.65a.38.38,0,0,1-.54,0,.39.39,0,0,1,0-.53.37.37,0,0,1,.53,0A.38.38,0,0,1,446.21,342.65Z" transform="translate(-60.9 -40.11)"/></g><g class="cls-23"><path class="cls-26" d="M90.28,243.29a14.7,14.7,0,1,0-13.82,15.53A14.71,14.71,0,0,0,90.28,243.29Z" transform="translate(-60.9 -40.11)"/><path class="cls-5" d="M77.41,245a1.76,1.76,0,0,1-2.68-2.29c.63-.74,61.9-69.13,61.9-69.13C136.86,173.74,78,244.23,77.41,245Z" transform="translate(-60.9 -40.11)"/><path class="cls-6" d="M77.36,244.93a1.7,1.7,0,1,1-2.59-2.21c.61-.72,58.09-64.84,58.11-64.82C133.11,178.1,78,244.21,77.36,244.93Z" transform="translate(-60.9 -40.11)"/><path class="cls-7" d="M77.32,244.89a1.64,1.64,0,0,1-2.5-2.13c.59-.69,54.26-60.54,54.31-60.5C129.36,182.46,77.9,244.2,77.32,244.89Z" transform="translate(-60.9 -40.11)"/><path class="cls-8" d="M77.27,244.85a1.58,1.58,0,0,1-2.4-2c.56-.67,50.44-56.24,50.5-56.19C125.62,186.82,77.84,244.18,77.27,244.85Z" transform="translate(-60.9 -40.11)"/><path class="cls-9" d="M77.22,244.81a1.52,1.52,0,1,1-2.31-2c.55-.64,46.63-51.94,46.71-51.87C121.87,191.18,77.77,244.17,77.22,244.81Z" transform="translate(-60.9 -40.11)"/><path class="cls-10" d="M77.18,244.77A1.46,1.46,0,0,1,75,242.88c.52-.62,42.8-47.65,42.91-47.56S77.7,244.16,77.18,244.77Z" transform="translate(-60.9 -40.11)"/><path class="cls-11" d="M77.13,244.73A1.4,1.4,0,1,1,75,242.91c.5-.58,39-43.34,39.1-43.23S77.63,244.14,77.13,244.73Z" transform="translate(-60.9 -40.11)"/><path class="cls-12" d="M77.08,244.69a1.34,1.34,0,1,1-2-1.74c.48-.56,35.16-39,35.31-38.92S77.56,244.13,77.08,244.69Z" transform="translate(-60.9 -40.11)"/><path class="cls-13" d="M77,244.65A1.28,1.28,0,0,1,75.1,243c.46-.53,31.34-34.75,31.51-34.6S77.5,244.11,77,244.65Z" transform="translate(-60.9 -40.11)"/><path class="cls-14" d="M77,244.61a1.22,1.22,0,0,1-1.71.14,1.23,1.23,0,0,1-.14-1.72c.44-.51,27.53-30.45,27.71-30.29S77.43,244.1,77,244.61Z" transform="translate(-60.9 -40.11)"/><path class="cls-15" d="M77,244.57a1.16,1.16,0,0,1-1.76-1.5c.41-.48,23.7-26.15,23.91-26S77.36,244.09,77,244.57Z" transform="translate(-60.9 -40.11)"/><path class="cls-16" d="M76.9,244.53a1.09,1.09,0,1,1-1.66-1.42c.39-.46,19.88-21.85,20.11-21.66S77.29,244.07,76.9,244.53Z" transform="translate(-60.9 -40.11)"/><path class="cls-17" d="M76.85,244.49a1,1,0,1,1-1.57-1.34c.37-.43,16.06-17.56,16.31-17.35S77.22,244.06,76.85,244.49Z" transform="translate(-60.9 -40.11)"/><path class="cls-18" d="M76.81,244.45a1,1,0,0,1-1.48-1.26c.35-.41,12.24-13.26,12.51-13S77.15,244,76.81,244.45Z" transform="translate(-60.9 -40.11)"/><path class="cls-19" d="M76.76,244.41a.91.91,0,1,1-1.38-1.18c.32-.38,8.42-9,8.71-8.72S77.09,244,76.76,244.41Z" transform="translate(-60.9 -40.11)"/><path class="cls-20" d="M76.71,244.37a.84.84,0,0,1-1.19.1.85.85,0,0,1-.1-1.2c.31-.36,4.6-4.67,4.91-4.4S77,244,76.71,244.37Z" transform="translate(-60.9 -40.11)"/><path class="cls-21" d="M76.67,244.33a.79.79,0,1,1-.09-1.11A.79.79,0,0,1,76.67,244.33Z" transform="translate(-60.9 -40.11)"/></g></g></g></g></svg>