<svg id="Layer_1" data-name="Layer 1" xmlns="http://www.w3.org/2000/svg" viewBox="0 0 487.04 54.07"><defs><style>.cls-1{fill:#3fa9f5;}</style></defs><path class="cls-1" d="M684.35,402.49a68.35,68.35,0,0,1,12.52-1.05c7,0,11.47,1.28,14.62,4.13a12.58,12.58,0,0,1,4,9.6c0,6.67-4.2,11.09-9.53,12.89v.23c3.9,1.35,6.23,4.95,7.43,10.2,1.65,7.05,2.85,11.92,3.9,13.87h-6.75c-.83-1.42-1.95-5.77-3.38-12.07-1.5-7-4.2-9.6-10.12-9.83h-6.15v21.9h-6.52Zm6.52,23h6.67c7,0,11.4-3.82,11.4-9.6,0-6.52-4.72-9.37-11.62-9.44a27.56,27.56,0,0,0-6.45.59Z" transform="translate(-684.35 -399.12)"/><path class="cls-1" d="M728.44,435.41c.15,8.93,5.85,12.6,12.45,12.6a23.84,23.84,0,0,0,10.05-1.87l1.13,4.72A29.43,29.43,0,0,1,740,453.11c-11.17,0-17.84-7.35-17.84-18.3s6.44-19.57,17-19.57c11.85,0,15,10.42,15,17.1a23.57,23.57,0,0,1-.23,3.07Zm19.35-4.72c.08-4.2-1.72-10.73-9.15-10.73-6.67,0-9.6,6.15-10.12,10.73Z" transform="translate(-684.35 -399.12)"/><path class="cls-1" d="M766,435.41c.15,8.93,5.85,12.6,12.45,12.6a23.91,23.91,0,0,0,10-1.87l1.12,4.72a29.37,29.37,0,0,1-12.07,2.25c-11.18,0-17.85-7.35-17.85-18.3s6.45-19.57,17-19.57c11.85,0,15,10.42,15,17.1a26,26,0,0,1-.22,3.07Zm19.35-4.72c.07-4.2-1.73-10.73-9.15-10.73-6.68,0-9.6,6.15-10.13,10.73Z" transform="translate(-684.35 -399.12)"/><path class="cls-1" d="M825.79,451a24.28,24.28,0,0,1-10.42,2.1c-11,0-18.08-7.42-18.08-18.52s7.65-19.28,19.5-19.28a22.05,22.05,0,0,1,9.15,1.88l-1.5,5.1a15.28,15.28,0,0,0-7.65-1.73c-8.32,0-12.82,6.15-12.82,13.73,0,8.4,5.4,13.57,12.6,13.57a18.7,18.7,0,0,0,8.1-1.8Z" transform="translate(-684.35 -399.12)"/><path class="cls-1" d="M836.74,435.41c.15,8.93,5.85,12.6,12.45,12.6a23.84,23.84,0,0,0,10-1.87l1.13,4.72a29.43,29.43,0,0,1-12.08,2.25c-11.17,0-17.85-7.35-17.85-18.3s6.45-19.57,17-19.57c11.85,0,15,10.42,15,17.1a23.57,23.57,0,0,1-.23,3.07Zm19.35-4.72c.08-4.2-1.72-10.73-9.15-10.73-6.67,0-9.6,6.15-10.12,10.73Z" transform="translate(-684.35 -399.12)"/><path class="cls-1" d="M922.09,450.71c-2.4,1.2-7.2,2.4-13.35,2.4-14.25,0-25-9-25-25.57,0-15.83,10.72-26.55,26.4-26.55,6.3,0,10.27,1.35,12,2.25l-1.58,5.32a23.91,23.91,0,0,0-10.2-2.09c-11.85,0-19.72,7.57-19.72,20.84,0,12.38,7.12,20.33,19.42,20.33a26.17,26.17,0,0,0,10.65-2.1Z" transform="translate(-684.35 -399.12)"/><path class="cls-1" d="M929.82,427.39c0-4.28-.08-7.95-.3-11.33h5.77l.23,7.13h.3c1.65-4.88,5.62-7.95,10-7.95a7.11,7.11,0,0,1,1.87.22v6.23a9.86,9.86,0,0,0-2.25-.23c-4.65,0-8,3.53-8.85,8.48a18.57,18.57,0,0,0-.3,3.07v19.35h-6.52Z" transform="translate(-684.35 -399.12)"/><path class="cls-1" d="M986.44,433.91c0,13.43-9.3,19.28-18.07,19.28-9.83,0-17.4-7.2-17.4-18.68,0-12.15,7.95-19.27,18-19.27C979.39,415.24,986.44,422.81,986.44,433.91Zm-28.8.38c0,7.95,4.58,13.95,11,13.95s11-5.93,11-14.1c0-6.15-3.07-13.95-10.87-13.95S957.64,427.39,957.64,434.29Z" transform="translate(-684.35 -399.12)"/><path class="cls-1" d="M996.87,416.06l4.8,18.45c1.05,4.05,2,7.8,2.7,11.55h.22c.83-3.67,2-7.57,3.23-11.47l5.92-18.53h5.55l5.63,18.15c1.35,4.35,2.4,8.18,3.22,11.85h.23a109,109,0,0,1,2.77-11.77l5.18-18.23h6.52l-11.7,36.3h-6L1019.59,435a122.08,122.08,0,0,1-3.22-11.93h-.15a108.49,108.49,0,0,1-3.3,12l-5.85,17.25h-6l-11-36.3Z" transform="translate(-684.35 -399.12)"/><path class="cls-1" d="M1057.39,405.64v10.42h9.45v5h-9.45v19.57c0,4.5,1.28,7,4.95,7a14.51,14.51,0,0,0,3.83-.45l.3,4.95a16.07,16.07,0,0,1-5.85.9,9.15,9.15,0,0,1-7.13-2.77c-1.87-1.95-2.55-5.18-2.55-9.45v-19.8h-5.62v-5h5.62v-8.69Z" transform="translate(-684.35 -399.12)"/><path class="cls-1" d="M1074.27,399.12h6.6v22.64h.15a12.34,12.34,0,0,1,4.72-4.65,13.65,13.65,0,0,1,6.75-1.87c4.88,0,12.68,3,12.68,15.52v21.6h-6.6V431.51c0-5.85-2.18-10.8-8.4-10.8a9.48,9.48,0,0,0-8.85,6.6,7.91,7.91,0,0,0-.45,3.15v21.9h-6.6Z" transform="translate(-684.35 -399.12)"/><path class="cls-1" d="M1119.57,435.41c.15,8.93,5.85,12.6,12.45,12.6a23.83,23.83,0,0,0,10-1.87l1.13,4.72a29.37,29.37,0,0,1-12.07,2.25c-11.18,0-17.85-7.35-17.85-18.3s6.45-19.57,17-19.57c11.85,0,15,10.42,15,17.1a23.57,23.57,0,0,1-.23,3.07Zm19.35-4.72c.07-4.2-1.73-10.73-9.15-10.73-6.68,0-9.6,6.15-10.13,10.73Z" transform="translate(-684.35 -399.12)"/><path class="cls-1" d="M1153.46,427.39c0-4.28-.07-7.95-.29-11.33h5.77l.23,7.13h.29c1.66-4.88,5.63-7.95,10-7.95a7.19,7.19,0,0,1,1.88.22v6.23a9.92,9.92,0,0,0-2.25-.23c-4.65,0-8,3.53-8.85,8.48a18.57,18.57,0,0,0-.3,3.07v19.35h-6.53Z" transform="translate(-684.35 -399.12)"/></svg>